<svg width="24" height="24" viewBox="0 0 426.671 426.671" xmlns="http://www.w3.org/2000/svg" xml:space="preserve" version="1.1">

 <g>
  <title>Download</title>
  <path id="svg_1" fill="currentColor" d="m355.145,201.003c-5.103,0 -10.048,0.533 -14.844,1.536c0,-0.26 0.03,-0.521 0.03,-0.772c0,-65.839 -53.363,-119.159 -119.164,-119.159c-55.561,0 -102.255,38.046 -115.401,89.515c-6.063,-1.318 -12.331,-2.044 -18.782,-2.044c-48.029,0.003 -86.984,38.941 -86.984,87.018c0,48.038 38.955,86.967 86.989,86.967l268.16,0c39.488,0 71.522,-32.009 71.522,-71.514c-0.004,-39.539 -32.038,-71.547 -71.526,-71.547z"/>
  <path stroke="null" id="svg_18" d="m157.15133,238.98339l53.99999,59.85598l53.99999,-59.85598l-27,0l0,-60.144l-53.99999,0l0,60.144l-27,0z" fill="#ffffff"/>
 </g>
</svg>
